# xmcd CD database file
#
# Track frame offsets:
#	150
#	23032
#	43853
#	60342
#	77213
#	101355
#	138314
#	155140
#	182988
#	199260
#	214329
#	233440
#	249778
#
# Disc length: 3494 seconds
#
# Revision: 0
# Processed by: cddbd v1.5.2PL0 Copyright (c) Steve Scherf et al.
# Submitted via: CDex 1.51
#
DISCID=ab0da40d
DTITLE=Al Delory - Floreando Salsajazz
DYEAR=1996
DGENRE=Jazz
TTITLE0=Classical Gas
TTITLE1=Via
TTITLE2=Floreando
TTITLE3=Carta De Amor
TTITLE4=Pa Gozar
TTITLE5=Quiet Village, Part 1 and 2
TTITLE6=Song From M*A*S*H
TTITLE7=Lover
TTITLE8=Yo Tango Nuevo Amor
TTITLE9=Maria Cervantes
TTITLE10=Oxigeno
TTITLE11=Pete Mambos On The Terrace
TTITLE12=I do now
EXTD=YEAR: 1996
EXTT0=
EXTT1=
EXTT2=
EXTT3=
EXTT4=
EXTT5=
EXTT6=
EXTT7=
EXTT8=
EXTT9=
EXTT10=
EXTT11=
EXTT12=
PLAYORDER=
